<?xml version="1.0" encoding="UTF-8"?>
<svg width="641px" height="191px" viewBox="0 0 641 191" version="1.1"
     xmlns="http://www.w3.org/2000/svg">
    <!-- Generator: Sketch 42 (36781) - http://www.bohemiancoding.com/sketch -->
    <title>bizum</title>
    <desc>Created with Sketch.</desc>
    <defs></defs>
    <g id="Page-1" stroke="none" stroke-width="1" fill="none" fill-rule="evenodd">
        <g id="bizum" fill="#05C0C7">
            <path d="M316.7888,67.8159 C311.3018,67.8159 306.8778,72.2299 306.8778,77.5479 L306.8778,150.6369 C306.8778,156.1279 311.3018,160.5509 316.7888,160.5509 C322.2818,160.5509 326.7088,156.1279 326.7088,150.6369 L326.7088,77.5479 C326.7088,72.2299 322.2818,67.8159 316.7888,67.8159 L316.7888,67.8159 Z M316.7888,31.3499 C310.6018,31.3499 305.6378,36.3049 305.6378,42.4979 C305.6378,48.6779 310.6018,53.8219 316.7888,53.8219 C322.9908,53.8219 327.9478,48.6779 327.9478,42.4979 C327.9478,36.3049 322.9908,31.3499 316.7888,31.3499 L316.7888,31.3499 Z M413.4198,77.3599 C413.4198,71.1859 408.4728,68.8729 404.2228,68.8729 L355.2058,68.8729 C350.4218,68.8729 346.5298,72.5959 346.5298,77.3599 C346.5298,82.1539 350.4218,86.0359 355.2058,86.0359 L387.4108,86.0359 L345.6568,144.0869 C344.4128,145.8529 343.7128,147.9869 343.7128,149.9279 C343.7128,155.9359 348.6638,159.4829 352.7328,159.4829 L404.7638,159.4829 C409.5298,159.4829 413.4198,155.5869 413.4198,150.8059 C413.4198,146.0389 409.7168,142.1339 404.7638,142.1339 L369.7208,142.1339 L410.5958,85.3369 C412.7108,82.5109 413.4198,80.0319 413.4198,77.3599 L413.4198,77.3599 Z M268.8838,123.3889 C268.8838,135.4179 263.5638,142.8479 251.7058,142.8479 C239.6718,142.8479 234.5418,135.4179 234.5418,123.3889 L234.5418,86.0359 L252.5498,86.0359 C267.0668,86.0359 268.8838,94.0039 268.8838,102.8599 L268.8838,123.3889 Z M288.5258,102.5079 C288.5258,81.9679 277.6818,68.8729 252.7138,68.8729 L234.5418,68.8729 L234.5418,41.2589 C234.5418,35.7619 230.1238,31.3499 224.8048,31.3499 C219.3158,31.3499 214.8988,35.7619 214.8988,41.2589 L214.9018,123.3889 C214.9018,143.7359 225.8698,160.5509 251.7058,160.5509 C277.3678,160.5509 288.5308,143.7359 288.5308,123.3889 L288.5308,102.8599 L288.5258,102.8599 L288.5258,102.5079 Z M490.6408,67.8159 C485.1508,67.8159 480.7288,72.2299 480.7288,77.7269 L480.7288,123.3889 C480.7288,135.4179 475.4128,142.8479 463.5508,142.8479 C451.5198,142.8479 446.3868,135.4179 446.3868,123.3889 L446.3868,77.7269 C446.3868,72.2299 441.9688,67.8159 436.6508,67.8159 C431.1628,67.8159 426.7448,72.2299 426.7448,77.7269 L426.7478,123.3889 C426.7478,143.7359 437.7168,160.5509 463.5508,160.5509 C489.2128,160.5509 500.3768,143.7359 500.3768,123.3889 L500.3768,77.7269 C500.3768,72.2299 495.9558,67.8159 490.6408,67.8159 L490.6408,67.8159 Z M640.8188,104.9729 C640.8188,84.6279 631.4028,67.8019 605.5728,67.8019 C594.0588,67.8019 585.7988,71.2089 580.1778,76.7839 C574.5628,71.2089 566.2968,67.8019 554.7108,67.8019 C529.0448,67.8019 519.4708,84.6279 519.4708,104.9729 L519.4568,150.6369 C519.4568,156.1279 523.8788,160.5509 529.1938,160.5509 C534.6798,160.5509 539.1038,156.1279 539.1038,150.6369 L539.1038,104.9729 C539.1038,92.9379 542.8538,85.5109 554.7108,85.5109 C566.7428,85.5109 570.3148,92.9379 570.3148,104.9729 L570.3148,150.6369 C570.3148,156.1279 574.7428,160.5509 580.0588,160.5509 C585.5448,160.5509 589.9688,156.1279 589.9688,150.6369 L589.9688,104.9729 C589.9688,92.9379 593.7108,85.5109 605.5728,85.5109 C617.6038,85.5109 621.1798,92.9379 621.1798,104.9729 L621.1798,150.6369 C621.1798,156.1279 625.5958,160.5509 630.9198,160.5509 C636.4068,160.5509 640.8268,156.1279 640.8268,150.6369 L640.8188,104.9729 Z M34.9008,67.9189 C41.8208,72.9459 51.5098,71.3969 56.5528,64.4669 L74.7648,39.4009 C79.8018,32.4759 78.2678,22.7819 71.3358,17.7539 C64.4128,12.7069 54.7228,14.2459 49.6948,21.1799 L31.4638,46.2559 C26.4398,53.1849 27.9558,62.8659 34.9008,67.9189 L34.9008,67.9189 Z M118.0588,32.5559 C111.1438,27.5079 101.4488,29.0589 96.4208,35.9749 L23.5348,136.2919 C18.4968,143.2079 20.0378,152.9129 26.9518,157.9359 C33.8858,162.9689 43.5768,161.4419 48.6038,154.5089 L121.4958,54.1899 C126.5338,47.2639 124.9938,37.5809 118.0588,32.5559 L118.0588,32.5559 Z M28.0328,24.6039 C33.0698,17.6869 31.5298,7.9849 24.6198,2.9569 C17.6738,-2.0731 7.9848,-0.5231 2.9628,6.3729 C-2.0702,13.3079 -0.5362,23.0019 6.3888,28.0289 C13.3048,33.0639 23.0078,31.5279 28.0328,24.6039 L28.0328,24.6039 Z M138.6358,162.4369 C131.7218,157.4149 122.0168,158.9549 116.9928,165.8699 C111.9668,172.7949 113.4918,182.4899 120.4148,187.5199 C127.3498,192.5589 137.0398,191.0189 142.0738,184.0869 C147.1018,177.1699 145.5608,167.4669 138.6358,162.4369 L138.6358,162.4369 Z M110.1248,122.5649 C103.2108,117.5369 93.5058,119.0769 88.4868,126.0009 L70.2608,151.0859 C65.2348,158.0029 66.7598,167.6869 73.6798,172.7349 C80.6148,177.7759 90.3088,176.2269 95.3358,169.2969 L113.5718,144.2209 C118.5908,137.2969 117.0598,127.6019 110.1248,122.5649 L110.1248,122.5649 Z" id="Fill-1"></path>
        </g>
    </g>
</svg>
