<?xml version="1.0" encoding="utf-8"?>
<!-- Generator: Adobe Illustrator 19.0.0, SVG Export Plug-In . SVG Version: 6.00 Build 0)  -->
<svg version="1.1" id="layer" xmlns="http://www.w3.org/2000/svg" x="0px" y="0px"
     viewBox="-153 -46 652 652" style="enable-background:new -153 -46 652 652;"
     xml:space="preserve">
<style type="text/css">
	.st0{fill-rule:evenodd;clip-rule:evenodd;fill:#2765AF;}
</style>
<g>
	<path d="M299,130.4h-72.5c-8,0-14.6,6.5-14.6,14.5v165.6c0,7.6,6.7,13.9,14.8,13.9h87c31.1,0,56.5-23.8,56.5-52.9
		c0-20.6-12.8-38.6-31.3-47.3c9.6-10,15.5-23.5,15.5-38.3C354.5,155.4,329.5,130.4,299,130.4 M339.7,268.4
		c0,14.9-12.2,27.1-27.1,27.1H242V158.1h55.7c14.5,0,26.3,11.8,26.3,26.3c0,13.1-9.7,24-22.3,26v0.3H274c-8.4,0-15.2,6.9-15.2,15.2
		c0,8.4,6.9,15.3,15.2,15.3h27.7v0.1h10.9C327.5,241.3,339.7,253.5,339.7,268.4"/>
	<path d="M43.7,525.7L43.7,525.7L43.7,525.7c5.8,0,11-2.4,14.8-6.2c3.8-3.8,6.2-9,6.2-14.8h0v-25.2c0-2.6-2.1-4.7-4.7-4.7
		c-2.6,0-4.7,2.1-4.7,4.7v25.2h0c0,3.2-1.3,6.1-3.4,8.2c-2.1,2.1-5,3.4-8.2,3.4v0h0v0c-3.2,0-6.1-1.3-8.2-3.4
		c-2.1-2.1-3.4-5-3.4-8.2h0v-25.2c0-2.6-2.1-4.7-4.7-4.7c-2.6,0-4.7,2.1-4.7,4.7v25.2h0c0,5.8,2.4,11,6.1,14.8
		C32.7,523.3,37.9,525.7,43.7,525.7L43.7,525.7z"/>
	<path d="M99.4,525.7c2.6,0,4.7-2.1,4.7-4.7s-2.1-4.7-4.7-4.7H86.5v0c-2.3,0-4.3-0.9-5.8-2.4c-1.5-1.5-2.4-3.5-2.4-5.8h0v0v-28.7
		c0-2.6-2.1-4.7-4.7-4.7c-2.6,0-4.7,2.1-4.7,4.7v28.7v0h0c0,4.8,2,9.2,5.1,12.4c3.2,3.2,7.6,5.2,12.4,5.2v0H99.4z"/>
	<path d="M-18.5,327.1c9.6,1,18.2-5.9,19.2-15.5L15,179.9l50.8,128.9l0.1,0.3l0,0.1l0.1,0.2l0.1,0.2l0.1,0.2l0.1,0.2l0.1,0.2
		l0.1,0.1l0.2,0.3v0l0.2,0.3l0.1,0.2c0.5,1,1.1,1.8,1.8,2.7l0.1,0.1c0.2,0.2,0.3,0.4,0.5,0.6h0c0.1,0.2,0.3,0.3,0.4,0.4
		c0.1,0.1,0.3,0.3,0.5,0.4c0.2,0.2,0.4,0.4,0.6,0.5l0.1,0.1c0.8,0.7,1.7,1.3,2.7,1.8l0.2,0.1l0.3,0.2l0,0l0.3,0.2l0.1,0.1l0.2,0.1
		l0.2,0.1l0.2,0.1l0.2,0.1l0.2,0.1l0.1,0l0.2,0.1c1.9,0.7,3.8,1.1,5.7,1.2h0.2l0.2,0H82h0.2l0.3,0h0.2c1.7-0.1,3.4-0.4,5.1-1l0.1,0
		l0.2-0.1l0.1-0.1l0.1,0l0.2-0.1l0.2-0.1l0.2-0.1l0.2-0.1l0.2-0.1l0.2-0.1l0.2-0.1l0.1-0.1l0.3-0.2l0.3-0.2l0.1,0
		c1.1-0.6,2.1-1.3,3-2.1l0.3-0.2l0.1,0c1.4-1.3,2.6-2.9,3.5-4.6l0.1-0.1l0.1-0.3l0.1-0.1l0.1-0.3l0.1-0.2l0.1-0.3l0-0.1l0.1-0.3
		l0.2-0.3v0l0.1-0.1L149,179.9l14.3,131.7c1,9.6,9.6,16.5,19.2,15.5c9.6-1,16.5-9.6,15.5-19.2l-16.9-155.3l0,0v-0.1
		c-0.2-1.8-0.6-3.6-1.1-5.4c-0.5-1.7-1.2-3.4-2.1-5c-4.3-8.1-12.2-13.8-21.7-15.1h0c-0.3,0-0.6-0.1-1-0.1c-1.5-0.2-3-0.2-4.4-0.1
		h-0.1c-1.9,0.1-3.7,0.3-5.3,0.7c-9,2.1-16.7,8.4-20.3,17.5L82,254.7L38.8,145c-3.6-9.2-11.2-15.4-20.3-17.5
		c-1.6-0.4-3.4-0.6-5.3-0.7h-0.1c-1.5-0.1-2.9,0-4.4,0.1c-0.3,0-0.6,0.1-1,0.1h0c-9.5,1.3-17.4,7-21.7,15.1c-0.9,1.6-1.6,3.3-2.1,5
		c-0.5,1.8-0.9,3.6-1.1,5.4h0l0,0.1v0L-34,307.9C-35.1,317.5-28.1,326.1-18.5,327.1"/>
	<path d="M-38.6,525.7c2.5,0.3,4.9-1.5,5.2-4.1l4-33.6l14.2,33.1c0.5,1.1,1.3,1.9,2.4,2.4c2.4,1,5.1-0.1,6.1-2.4L7.7,488l4,33.6
		c0.3,2.5,2.6,4.4,5.2,4.1c2.5-0.3,4.4-2.6,4.1-5.2l-4.6-39l0-0.1c0-0.2-0.1-0.4-0.1-0.6c-0.1-0.3-0.1-0.6-0.2-0.9
		c-0.2-0.5-0.4-0.9-0.6-1.3c-1.2-2-3.3-3.4-5.8-3.7h0l0,0c-0.1,0-0.2,0-0.4,0h0c-0.3,0-0.7,0-1,0c-0.5,0-0.9,0.1-1.4,0.2
		c-2.4,0.5-4.4,2.1-5.5,4.4l-12.1,28l-12.1-28c-0.1-0.2-0.2-0.4-0.3-0.5c-0.2-0.3-0.4-0.6-0.5-0.9c-0.3-0.4-0.6-0.8-1-1.1
		c-1.7-1.6-4.1-2.4-6.5-2.1l-0.1,0h0c-0.5,0.1-1,0.2-1.4,0.3c-0.1,0-0.2,0.1-0.4,0.1c-0.3,0.1-0.6,0.3-0.9,0.4
		c-2.2,1.2-3.8,3.2-4.1,5.8l-4.6,39C-42.9,523-41.1,525.4-38.6,525.7"/>
	<path d="M115.2,525.7c2.6,0,4.7-2.1,4.7-4.7v-36.9h13.3c2.6,0,4.7-2.1,4.7-4.7c0-2.6-2.1-4.7-4.7-4.7h-18h-18
		c-2.6,0-4.7,2.1-4.7,4.7c0,2.6,2.1,4.7,4.7,4.7h13.3V521C110.5,523.6,112.6,525.7,115.2,525.7"/>
	<path d="M139.6,479.5V521c0,2.6,2.1,4.7,4.7,4.7c2.6,0,4.7-2.1,4.7-4.7v-41.5c0-2.6-2.1-4.7-4.7-4.7
		C141.7,474.8,139.6,476.9,139.6,479.5"/>
	<path d="M212.9,503.8c0,2.6,2.1,4.7,4.7,4.7h16.2l1.7,13.2c0.3,2.6,2.6,4.4,5.2,4.1c2.5-0.3,4.4-2.6,4.1-5.2l-3.2-25.9v0
		c0-0.1,0-0.3-0.1-0.4c-0.2-1.3-0.5-2.6-0.8-3.8c-0.4-1.3-0.9-2.7-1.6-4c-3.4-6.7-9.6-11.5-17.7-11.5h0v0c-1.6,0-3.1,0.2-4.5,0.5
		c-1.5,0.4-2.9,0.9-4.1,1.5c-6.4,3.3-10.7,10-11.5,17.7l-2.9,25.9c-0.3,2.5,1.6,4.9,4.1,5.1c2.6,0.3,4.9-1.5,5.2-4.1l2.9-25.9
		c0.5-4.6,2.9-8.6,6.5-10.4c0.7-0.4,1.4-0.6,2.1-0.8c0.8-0.2,1.5-0.3,2.4-0.3v0h0c4.2,0,7.6,2.6,9.4,6.3c0.4,0.7,0.7,1.6,1,2.5
		c0.2,0.8,0.4,1.6,0.5,2.4c0,0.1,0,0.2,0,0.3v0l0.5,3.4h-15C215,499.1,212.9,501.2,212.9,503.8"/>
	<path d="M291.2,524.1c0.1,0,0.3-0.1,0.4-0.2l0.1,0c0.2-0.1,0.4-0.2,0.6-0.3c0.3-0.2,0.6-0.4,0.9-0.6c1.5-1.2,2.4-3.1,2.4-5.1v-38.4
		c0-2.6-2.1-4.7-4.7-4.7c-2.6,0-4.7,2.1-4.7,4.7v30.6l-24.8-31.7c-1.2-1.6-3-2.4-4.9-2.5h-0.1h0c-0.4,0-0.8,0-1.1,0.1l0,0
		c-0.2,0-0.3,0.1-0.5,0.1c-0.2,0-0.4,0.1-0.6,0.2c-1.6,0.5-2.9,1.6-3.7,3.1h0l0,0c-0.1,0.3-0.3,0.6-0.4,0.8v0
		c-0.2,0.5-0.3,1-0.4,1.5c0,0.3-0.1,0.5-0.1,0.8V521c0,2.6,2.1,4.7,4.7,4.7c2.6,0,4.7-2.1,4.7-4.7v-30.8l24.9,31.7l0.1,0.1h0l0,0
		l0.2,0.2c0.2,0.3,0.4,0.5,0.6,0.6c0.3,0.3,0.6,0.5,0.9,0.7c0.2,0.1,0.4,0.2,0.6,0.3C287.7,524.6,289.5,524.7,291.2,524.1
		L291.2,524.1L291.2,524.1z"/>
	<path d="M318.1,484.2h13.8c2.6,0,4.7-2.1,4.7-4.7c0-2.6-2.1-4.7-4.7-4.7h-13.8h0v0c-5.1,0-9.6,2.1-13,5.4c-3.3,3.3-5.4,7.9-5.4,13
		h0v0v14v0h0c0,5.1,2.1,9.7,5.4,13c3.3,3.3,7.9,5.4,13,5.4v0h13.8c2.6,0,4.7-2.1,4.7-4.7c0-2.6-2.1-4.7-4.7-4.7h-13.8
		c-2.5,0-4.8-1-6.4-2.7c-1.7-1.6-2.7-3.9-2.7-6.4h0v0v-14v0h0c0-2.5,1-4.8,2.7-6.4C313.4,485.2,315.6,484.1,318.1,484.2L318.1,484.2
		L318.1,484.2z"/>
	<path d="M358.9,474.8L358.9,474.8L358.9,474.8L358.9,474.8c-6,0-11.4,2.3-15.3,6.1c-4,3.8-6.4,9.1-6.4,15h0v8.7h0
		c0,5.8,2.5,11.1,6.4,15c3.9,3.8,9.4,6.1,15.3,6.1v0h0v0c6,0,11.4-2.4,15.3-6.1c4-3.8,6.4-9.1,6.4-15h0v-8.7v0h0
		c0-5.8-2.5-11.1-6.4-14.9C370.2,477.2,364.8,474.8,358.9,474.8 M371.3,504.6c0,3.2-1.4,6.1-3.6,8.2c-2.3,2.2-5.4,3.5-8.8,3.5h0
		c-3.4,0-6.6-1.4-8.8-3.5c-2.2-2.1-3.6-5-3.6-8.2h0v-8.7h0c0-3.2,1.4-6.1,3.6-8.3c2.3-2.2,5.4-3.5,8.8-3.5v0h0v0
		c3.4,0,6.6,1.4,8.8,3.5c2.2,2.1,3.6,5.1,3.6,8.2h0v0L371.3,504.6L371.3,504.6z"/>
	<path d="M175.7,474.8h-18h0v0c-0.1,0-0.2,0-0.3,0c-1.2,0.1-2.3,0.6-3.1,1.3l-0.1,0.1c-0.5,0.5-0.8,1-1.1,1.6
		c-0.3,0.6-0.4,1.2-0.4,1.9V500V521c0,2.6,2.1,4.7,4.7,4.7h22.7h0v0c4.2,0,8-1.7,10.7-4.4c2.7-2.8,4.5-6.6,4.5-10.7h0v0h0
		c0-4-1.6-7.7-4.2-10.4c-0.1-0.1-0.2-0.2-0.3-0.3c-0.8-0.8-1.7-1.5-2.6-2.1c1.5-2.3,2.3-5,2.3-7.9h0h0c0-4.1-1.7-7.8-4.4-10.5
		C183.6,476.5,179.8,474.8,175.7,474.8L175.7,474.8L175.7,474.8z M179.6,485.8c1,1,1.7,2.4,1.7,3.9h0h0c0,1.5-0.6,2.9-1.6,3.9l0,0v0
		c-0.9,0.9-2.2,1.5-3.5,1.6h-0.4h0H174c-2.6,0-4.7,2.1-4.7,4.7c0,2.6,2.1,4.7,4.7,4.7h1.7h0h4.5v0c1.6,0,3.1,0.7,4.2,1.7l0.2,0.2
		c1,1.1,1.6,2.4,1.6,4h0v0h0c0,1.6-0.7,3.1-1.7,4.1c-1.1,1.1-2.5,1.7-4.1,1.7v0h0h-18V500v-15.8h13.5h0v0
		C177.2,484.1,178.6,484.8,179.6,485.8"/>
	<path class="st0" d="M44.3,25.7h253.9h13.4c18.8,0,34.2,16.3,34.2,36.1v17.3c0,24.4-33.1,24.3-33.1,0.2v-9.4
		c0-6-4.9-10.9-10.9-10.9l-267.8,0c-6,0-10.9,4.9-10.9,10.9v9.3c0,24.3-31.5,24.1-31.5,0.5V61.8c0-19.9,15.4-36.1,34.1-36.1H44.3z
		 M166.8,428.7h173.3c39.6,0,40-42.1,35.9-62.9c-2.2-13.9-25.9-13.8-28.5,0V382c0,7.4-6.1,13.5-13.5,13.5H166.8h-13.4H1.8
		c-7.4,0-13.5-6.1-13.5-13.5v-16.2c-2.6-13.8-26.3-14-28.5,0c-4,20.8-3.6,62.9,35.9,62.9h157.7H166.8z"/>
</g>
</svg>
