<svg xmlns="http://www.w3.org/2000/svg" width="640" height="360" viewBox="0 0 640 360">
  <defs>
    <linearGradient id="pixGrad" x1="0%" y1="0%" x2="100%" y2="100%">
      <stop offset="0%" style="stop-color:#32BCAD"/>
      <stop offset="100%" style="stop-color:#4BB8A9"/>
    </linearGradient>
  </defs>
  <g fill="none" fill-rule="evenodd">
    <!-- PIX Logo Symbol -->
    <g transform="translate(180, 80)">
      <!-- Diamond shape made of triangles -->
      <path d="M100 0 L150 50 L100 100 L50 50 Z" fill="url(#pixGrad)"/>
      <path d="M150 50 L200 100 L150 150 L100 100 Z" fill="#32BCAD"/>
      <path d="M100 100 L150 150 L100 200 L50 150 Z" fill="url(#pixGrad)"/>
      <path d="M50 50 L100 100 L50 150 L0 100 Z" fill="#32BCAD"/>
      <!-- Center square -->
      <rect x="75" y="75" width="50" height="50" fill="#FFFFFF"/>
    </g>
    <!-- PIX Text -->
    <g fill="#32BCAD" transform="translate(320, 140)">
      <path d="M0 0h30c16.5 0 30 13.5 30 30s-13.5 30-30 30H20v40H0V0zm20 40h10c5.5 0 10-4.5 10-10s-4.5-10-10-10H20v20z"/>
      <path d="M70 0h20v100H70z"/>
      <path d="M110 0h25l20 35 20-35h25l-35 55 35 45h-25l-20-30-20 30h-25l35-45z"/>
    </g>
  </g>
</svg>
