<svg xmlns="http://www.w3.org/2000/svg" version="1.0" width="1024" height="442" viewBox="-2.408 -2.408 196.951 85.082"><path d="M.06 62.94l1.971-.192c.117.661.359 1.146.721 1.457.363.31.853.465 1.468.465.652 0 1.144-.138 1.475-.413.33-.277.496-.6.496-.97a.92.92 0 00-.209-.605c-.14-.165-.382-.31-.729-.434-.237-.083-.777-.229-1.622-.438-1.085-.27-1.847-.6-2.285-.992-.616-.551-.924-1.225-.924-2.019 0-.51.145-.989.435-1.432.289-.447.706-.784 1.253-1.018.544-.232 1.202-.349 1.974-.349 1.258 0 2.206.277 2.842.83.636.55.971 1.288 1.002 2.21l-2.024.088c-.088-.516-.273-.886-.558-1.113-.285-.225-.714-.338-1.284-.338-.587 0-1.049.12-1.381.363a.728.728 0 00-.323.623c0 .236.1.44.302.609.255.215.876.437 1.861.67.985.232 1.714.473 2.186.722.473.249.841.589 1.109 1.019.266.432.4.965.4 1.599a2.96 2.96 0 01-.479 1.615c-.32.5-.771.873-1.355 1.118-.583.244-1.311.367-2.182.367-1.269 0-2.243-.294-2.923-.88-.68-.587-1.085-1.44-1.217-2.563M10.327 56.172h1.922v1.779h-1.922v-1.779zm0 2.764h1.922v7.267h-1.922v-7.267zM21.25 66.203h-1.922v-3.709c0-.785-.041-1.292-.124-1.522a1.063 1.063 0 00-.4-.538 1.147 1.147 0 00-.667-.19c-.333 0-.631.09-.896.273a1.372 1.372 0 00-.544.725c-.099.301-.148.857-.148 1.67v3.291h-1.922v-7.267h1.786v1.067c.634-.821 1.433-1.231 2.395-1.231.424 0 .811.076 1.163.229.35.153.617.348.797.585.18.237.305.507.376.807.072.301.107.733.107 1.294v4.516zM23.443 66.682l2.197.268c.036.255.12.43.253.526.183.137.47.205.863.205.501 0 .877-.075 1.129-.225a.931.931 0 00.382-.486c.059-.16.089-.454.089-.883v-1.061c-.574.785-1.3 1.177-2.175 1.177-.976 0-1.75-.413-2.32-1.238-.448-.653-.671-1.464-.671-2.437 0-1.217.293-2.148.88-2.79a2.836 2.836 0 012.186-.966c.899 0 1.64.394 2.224 1.184v-1.02h1.8v6.521c0 .858-.072 1.499-.213 1.923-.141.425-.34.757-.595 1-.256.24-.597.43-1.024.567-.426.136-.966.205-1.617.205-1.233 0-2.106-.211-2.621-.632-.515-.423-.773-.958-.773-1.605l.006-.233zm1.718-4.262c0 .77.149 1.335.449 1.693.297.358.666.537 1.105.537.468 0 .866-.184 1.19-.55.323-.368.486-.912.486-1.633 0-.752-.155-1.311-.465-1.676a1.482 1.482 0 00-1.178-.548c-.46 0-.84.18-1.138.537-.3.358-.45.905-.45 1.64M32.602 56.172h1.922v10.031h-1.922V56.172zM41.124 63.89l1.916.322c-.246.702-.636 1.237-1.167 1.605-.531.367-1.197.55-1.994.55-1.264 0-2.199-.413-2.806-1.238-.479-.661-.718-1.496-.718-2.505 0-1.204.314-2.148.944-2.83.63-.681 1.425-1.022 2.388-1.022 1.08 0 1.934.357 2.56 1.07.624.715.923 1.808.896 3.282h-4.818c.014.57.169 1.014.465 1.331.297.317.666.475 1.109.475.301 0 .555-.082.76-.246.205-.164.36-.429.465-.794m.11-1.944c-.014-.556-.157-.98-.431-1.268a1.324 1.324 0 00-1-.435 1.34 1.34 0 00-1.04.459c-.274.305-.408.72-.404 1.245h2.875zM49.458 66.203V56.172h7.437v1.696h-5.412v2.225h5.036v1.69h-5.036v2.73h5.605v1.69h-7.63zM63.994 66.203v-1.087a2.806 2.806 0 01-1.043.916 2.923 2.923 0 01-1.365.335 2.66 2.66 0 01-1.314-.321 1.894 1.894 0 01-.841-.904c-.174-.388-.26-.924-.26-1.608v-4.598h1.922v3.34c0 1.02.035 1.647.106 1.878.07.23.2.413.387.548.187.134.425.201.71.201.33 0 .625-.09.885-.27.26-.18.437-.405.533-.671.095-.268.144-.92.144-1.96v-3.066h1.923v7.267h-1.787zM70.033 66.203H68.11v-7.267h1.787v1.033c.304-.488.58-.81.823-.965.244-.155.522-.232.832-.232.438 0 .86.121 1.266.362l-.595 1.677c-.325-.21-.625-.314-.904-.314-.269 0-.498.074-.684.222-.187.148-.335.417-.441.804-.108.388-.161 1.2-.161 2.435v2.245zM73.621 62.467c0-.639.158-1.256.473-1.854a3.227 3.227 0 011.338-1.368 3.964 3.964 0 011.932-.473c1.1 0 2.001.358 2.704 1.071.701.714 1.053 1.615 1.053 2.706 0 1.1-.355 2.01-1.064 2.733-.71.724-1.602 1.085-2.68 1.085-.665 0-1.3-.15-1.904-.451a3.098 3.098 0 01-1.379-1.324c-.315-.582-.472-1.29-.472-2.125m1.97.102c0 .722.17 1.273.513 1.657.343.382.764.575 1.266.575s.923-.193 1.263-.575c.339-.384.51-.94.51-1.67 0-.712-.171-1.259-.51-1.643a1.623 1.623 0 00-1.263-.573c-.502 0-.923.19-1.266.573-.342.384-.512.935-.512 1.657M87.374 66.203V56.172h3.25c1.233 0 2.035.05 2.409.15.575.151 1.056.479 1.444.982.387.504.581 1.155.581 1.954 0 .615-.111 1.133-.335 1.553-.224.42-.507.75-.851.99a2.951 2.951 0 01-1.052.475c-.482.095-1.183.143-2.1.143H89.4v3.784h-2.026zm2.025-8.335v2.848h1.109c.799 0 1.333-.053 1.601-.158.269-.105.48-.27.633-.492.153-.224.23-.484.23-.78 0-.365-.108-.667-.322-.904a1.4 1.4 0 00-.815-.445c-.24-.045-.727-.069-1.457-.069h-.979zM98.565 61.153l-1.744-.315c.195-.702.534-1.222 1.013-1.56.478-.337 1.19-.506 2.135-.506.856 0 1.495.101 1.915.305.42.203.715.46.886.773.171.312.256.886.256 1.72l-.02 2.245c0 .64.031 1.11.093 1.413.06.303.176.629.346.975h-1.903a6.903 6.903 0 01-.186-.567 3.232 3.232 0 00-.067-.227c-.33.32-.68.56-1.054.72-.374.16-.773.238-1.198.238-.748 0-1.337-.203-1.768-.609-.432-.406-.647-.918-.647-1.54 0-.41.098-.776.294-1.097.195-.322.47-.568.825-.74.353-.17.863-.32 1.529-.448.899-.169 1.521-.326 1.867-.472v-.191c0-.37-.09-.633-.273-.79-.183-.158-.527-.237-1.033-.237-.342 0-.61.068-.801.203-.191.134-.346.37-.465.707m2.572 1.56c-.246.083-.635.18-1.168.295-.534.114-.884.225-1.048.335-.251.178-.376.404-.376.678 0 .269.1.501.301.697.2.197.455.294.766.294.347 0 .677-.114.992-.341.232-.174.386-.387.46-.637.048-.165.073-.477.073-.937v-.384zM104.432 58.936h2.046l1.74 5.16 1.695-5.16h1.992l-2.567 6.994-.458 1.265c-.17.425-.33.749-.482.973a2.127 2.127 0 01-.527.543 2.312 2.312 0 01-.733.325c-.29.078-.616.117-.982.117a5.08 5.08 0 01-1.086-.117l-.173-1.505a4.3 4.3 0 00.815.089c.446 0 .778-.131.991-.394.215-.262.38-.596.494-1.002l-2.765-7.288zM113.413 58.936h1.772v.993c.634-.772 1.39-1.157 2.265-1.157.465 0 .87.096 1.212.287.34.192.622.482.84.87.32-.388.665-.678 1.035-.87a2.535 2.535 0 011.183-.286c.534 0 .985.107 1.354.323.37.218.646.535.829.955.131.311.199.813.199 1.506v4.647h-1.924V62.05c0-.721-.065-1.186-.198-1.396-.178-.274-.452-.41-.82-.41-.27 0-.523.081-.76.246-.238.164-.408.405-.513.721-.107.318-.158.818-.158 1.503v3.49h-1.924V62.22c0-.707-.033-1.163-.102-1.368a.868.868 0 00-.318-.46c-.143-.1-.338-.15-.585-.15-.297 0-.563.08-.8.24a1.31 1.31 0 00-.51.69c-.103.302-.155.802-.155 1.5v3.53h-1.922v-7.267zM130.646 63.89l1.916.322c-.246.702-.636 1.237-1.167 1.605-.532.367-1.197.55-1.994.55-1.265 0-2.199-.413-2.806-1.238-.48-.661-.72-1.496-.72-2.505 0-1.204.316-2.148.946-2.83.63-.681 1.425-1.022 2.387-1.022 1.082 0 1.935.357 2.56 1.07.624.715.924 1.808.897 3.282h-4.818c.014.57.169 1.014.465 1.331a1.46 1.46 0 001.109.475c.301 0 .555-.082.76-.246.205-.164.36-.429.465-.794m.11-1.944c-.014-.556-.158-.98-.431-1.268a1.324 1.324 0 00-1-.435 1.34 1.34 0 00-1.04.459c-.274.305-.41.72-.404 1.245h2.875zM141.262 66.203h-1.923v-3.709c0-.785-.04-1.292-.123-1.522a1.07 1.07 0 00-.4-.538 1.147 1.147 0 00-.668-.19c-.332 0-.631.09-.896.273a1.372 1.372 0 00-.544.725c-.097.301-.147.857-.147 1.67v3.291h-1.923v-7.267h1.786v1.067c.634-.821 1.433-1.231 2.395-1.231.424 0 .812.076 1.163.229.351.153.616.348.798.585.18.237.306.507.376.807.071.301.106.733.106 1.294v4.516zM146.965 58.936v1.533h-1.314v2.928c0 .593.013.94.038 1.037l.171.243a.54.54 0 00.325.095c.178 0 .435-.06.773-.183l.163 1.491a3.822 3.822 0 01-1.519.288c-.346 0-.658-.06-.936-.174-.279-.118-.482-.268-.612-.453s-.221-.435-.272-.748c-.04-.224-.06-.675-.06-1.355v-3.17h-.883v-1.532h.882v-1.444l1.93-1.122v2.566h1.314zM148.042 64.13l1.93-.294c.082.374.248.657.5.851.25.194.602.291 1.053.291.498 0 .871-.09 1.123-.273a.611.611 0 00.253-.514.505.505 0 00-.137-.363c-.095-.09-.312-.175-.643-.252-1.552-.343-2.535-.655-2.95-.938-.575-.392-.862-.937-.862-1.636 0-.629.249-1.159.746-1.587.496-.429 1.267-.643 2.314-.643.994 0 1.732.162 2.216.485.482.325.816.804.999 1.438l-1.814.335a1.12 1.12 0 00-.441-.65c-.216-.15-.525-.225-.928-.225-.506 0-.867.07-1.087.211a.454.454 0 00-.219.39c0 .138.064.254.192.349.173.127.772.309 1.796.541 1.023.233 1.738.517 2.146.855.4.343.601.819.601 1.43 0 .666-.278 1.239-.834 1.718-.557.478-1.381.718-2.471.718-.99 0-1.773-.201-2.35-.602a2.77 2.77 0 01-1.133-1.635M169.787 66.203h-2.204l-.875-2.279h-4.01l-.828 2.28h-2.148l3.906-10.032h2.143l4.016 10.031zm-3.728-3.969l-1.383-3.722-1.355 3.722h2.738zM173.11 66.203h-1.923v-7.267h1.786v1.033c.305-.488.58-.81.824-.965.243-.155.52-.232.83-.232.44 0 .86.121 1.267.362l-.595 1.677c-.325-.21-.625-.314-.904-.314-.268 0-.497.074-.683.222-.188.148-.335.417-.443.804-.106.388-.16 1.2-.16 2.435v2.245zM181.35 63.89l1.917.322c-.246.702-.635 1.237-1.166 1.605-.533.367-1.198.55-1.995.55-1.264 0-2.199-.413-2.806-1.238-.48-.661-.72-1.496-.72-2.505 0-1.204.316-2.148.946-2.83.629-.681 1.426-1.022 2.387-1.022 1.082 0 1.935.357 2.56 1.07.625.715.924 1.808.897 3.282h-4.818c.014.57.169 1.014.465 1.331.296.317.666.475 1.109.475.301 0 .555-.082.76-.246.205-.164.36-.429.465-.794m.11-1.944c-.014-.556-.158-.98-.431-1.268a1.324 1.324 0 00-1-.435 1.34 1.34 0 00-1.04.459c-.274.305-.408.72-.404 1.245h2.875zM186.793 61.153l-1.744-.315c.195-.702.534-1.222 1.013-1.56.479-.337 1.19-.506 2.135-.506.856 0 1.495.101 1.916.305.419.203.714.46.885.773.172.312.257.886.257 1.72l-.02 2.245c0 .64.03 1.11.092 1.413.061.303.176.629.346.975h-1.902a6.53 6.53 0 01-.185-.567 3.8 3.8 0 00-.069-.227c-.329.32-.68.56-1.054.72-.374.16-.772.238-1.197.238-.749 0-1.338-.203-1.769-.609-.431-.406-.648-.918-.648-1.54 0-.41.1-.776.296-1.097a1.93 1.93 0 01.825-.74c.352-.17.862-.32 1.528-.448.899-.169 1.522-.326 1.868-.472v-.191c0-.37-.09-.633-.274-.79-.183-.158-.526-.237-1.032-.237-.342 0-.61.068-.802.203-.191.134-.346.37-.465.707m2.573 1.56c-.247.083-.635.18-1.169.295-.534.114-.884.225-1.048.335-.25.178-.376.404-.376.678 0 .269.1.501.302.697.2.197.455.294.766.294.346 0 .677-.114.991-.341a1.21 1.21 0 00.46-.637c.049-.165.074-.477.074-.937v-.384zM42.688 16.748H29.54c0-2.157-.253-3.605-.759-4.342-.782-1.09-2.94-1.636-6.474-1.636-3.433 0-5.708.314-6.818.942-1.11.632-1.666 2.003-1.666 4.114 0 1.911.492 3.171 1.479 3.774.706.428 1.64.68 2.802.755l2.651.187c5.683.377 9.232.643 10.646.794 4.494.453 7.752 1.648 9.773 3.584 1.59 1.511 2.539 3.486 2.841 5.923.178 1.46.265 3.11.265 4.944 0 4.228-.404 7.323-1.21 9.284-1.463 3.6-4.752 5.874-9.868 6.829-2.144.404-5.423.605-9.834.605-7.363 0-12.493-.438-15.39-1.319-3.555-1.079-5.9-3.265-7.034-6.556C.313 42.797 0 39.745 0 35.472h13.146l.002 1.093c0 2.28.655 3.745 1.963 4.399.906.45 2 .686 3.287.715h4.833c2.466 0 4.04-.127 4.719-.38 1.209-.475 2.003-1.24 2.381-2.3.201-.652.302-1.494.302-2.527 0-2.311-.844-3.717-2.53-4.222-.63-.199-3.56-.478-8.793-.829-4.202-.3-7.121-.589-8.755-.869-4.304-.805-7.172-2.461-8.604-4.975C.692 23.442.064 20.211.064 15.887c0-3.291.34-5.931 1.02-7.916.68-1.986 1.776-3.494 3.288-4.525C6.59 1.862 9.425.933 12.877.656 15.75.405 18.935.277 22.44.277c5.517 0 9.45.318 11.794.947 5.721 1.537 8.581 5.842 8.581 12.917 0 .58-.042 1.447-.127 2.607M100.498 52.505V0h26.328c3.611 0 6.366.294 8.26.884 4.33 1.356 7.235 4.135 8.724 8.332.767 2.204 1.152 5.522 1.152 9.952 0 5.326-.426 9.152-1.27 11.483-1.689 4.608-5.164 7.263-10.412 7.95-.618.104-3.244.196-7.88.27l-2.346.078h-8.425v13.556H100.5zM114.63 26.77h8.81c2.793-.1 4.492-.315 5.103-.651.835-.459 1.396-1.379 1.675-2.758.179-.917.267-2.282.267-4.095 0-2.221-.177-3.867-.533-4.942-.508-1.507-1.725-2.423-3.653-2.757-.382-.05-1.295-.077-2.741-.077h-8.928v15.28zM175.126 43.431h-18.894l-2.539 9.074h-14.62L154.85 0h21.316l15.969 52.505h-14.313l-2.696-9.074zm-2.806-10.228l-6.622-22.76-6.425 22.76h13.047z" fill="#10298e"/><path d="M80.994 7.387c5.828 0 11.03 2.685 14.449 6.89l3.046-6.531C93.725 3.242 87.242.465 80.09.465c-11.135 0-20.66 6.726-24.568 16.246h-5.94l-3.508 7.518h7.641a25.537 25.537 0 00-.095 2.108c0 .861.045 1.714.13 2.555h-3.84l-3.506 7.521h9.3c4.02 9.279 13.426 15.793 24.386 15.793 5.524 0 10.65-1.655 14.893-4.483v-9.217c-3.418 3.891-8.416 6.35-13.989 6.35-6.514 0-12.244-3.359-15.58-8.443h19.473l3.507-7.521H62.55a18.947 18.947 0 01-.11-4.663h28.129l3.506-7.518H64.87c3.23-5.574 9.24-9.325 16.124-9.325" fill="#ffbe00"/><path d="M80.994 7.612c5.554 0 10.756 2.482 14.274 6.807l.227.28.154-.326 3.045-6.531.068-.149-.117-.112C93.638 2.848 87.048.242 80.09.242c-5.433 0-10.66 1.587-15.12 4.591-4.353 2.933-7.693 7.011-9.656 11.793l.208-.14h-6.085l-.06.13-3.507 7.52-.15.321h7.995l-.225-.245a26.04 26.04 0 00-.095 2.126c0 .844.044 1.713.13 2.578l.225-.248H49.768l-.06.13-3.509 7.52-.149.322h9.654l-.207-.137c4.192 9.676 13.846 15.929 24.593 15.929 5.388 0 10.58-1.561 15.018-4.519l.099-.066v-9.939l-.394.45a18.402 18.402 0 01-13.819 6.272c-6.212 0-11.966-3.12-15.392-8.34l-.188.35h19.618l.06-.13 3.507-7.522.15-.32h-26.2l.224.193a18.72 18.72 0 01-.109-4.607l-.225.203h28.274l.06-.13 3.506-7.52.151-.321H64.87l.195.338c3.293-5.682 9.398-9.212 15.93-9.212M64.87 16.937h29.204l-.205-.321-3.505 7.52.204-.13H62.235l-.022.203a19.46 19.46 0 00.112 4.718l.03.192H88.394l-.204-.32-3.506 7.52.203-.13H64.995l.23.347c3.51 5.352 9.405 8.544 15.77 8.544 5.41 0 10.57-2.34 14.158-6.424l-.396-.149v9.218l.1-.187c-4.364 2.907-9.47 4.443-14.767 4.443-10.568 0-20.058-6.147-24.178-15.658l-.06-.135h-9.448l.206.323 3.505-7.523-.205.131H54l-.025-.248c-.085-.85-.13-1.704-.13-2.533 0-.637.032-1.321.095-2.088l.02-.244h-7.885l.203.321 3.507-7.52-.203.13H55.672l.057-.14c1.931-4.699 5.214-8.706 9.494-11.59C69.605 2.256 74.748.694 80.09.694c6.843 0 13.32 2.562 18.244 7.216l-.05-.26-3.044 6.532.38-.048c-3.607-4.43-8.936-6.973-14.626-6.973-6.694 0-12.945 3.616-16.32 9.437l-.196.339h.392z" fill="#10298e"/></svg>